<svg width="936" height="412" viewBox="0 0 936 412" fill="none" xmlns="http://www.w3.org/2000/svg">
<rect width="936" height="412" fill="#212121"/>
<path d="M454.322 166.284C456.586 164.622 458.96 163.348 461.566 165.492C464.023 167.514 463.646 170.093 462.827 172.814C461.437 177.429 460.161 182.081 458.972 186.752C458.376 189.093 458.429 191.598 460.415 193.244C462.642 195.088 465.024 193.697 466.858 192.398C476.281 185.727 485.306 178.639 490.127 167.607C491.259 165.016 492.54 162.477 493.926 160.012C495.428 157.341 497.776 156.19 500.651 157.633C503.362 158.993 503.648 161.547 502.647 164.104C500.777 168.88 498.704 173.578 497.184 178.647C500.181 175.463 503.11 172.212 506.201 169.121C507.843 167.48 509.651 165.946 511.584 164.666C515.361 162.165 519.376 159.5 524.068 161.906C529.051 164.462 529.044 169.363 528.749 174.135C528.544 177.455 528.104 180.76 527.901 184.08C527.448 191.499 530.716 193.943 537.275 190.604C545.532 186.401 552.341 180.245 558.36 173.236C560.205 171.088 561.853 168.769 563.724 166.645C566.351 163.662 569.43 162.01 573.375 164.13C578.984 155.559 583.882 153.983 590.147 158.655C594.357 161.796 595.404 166.41 594.995 171.132C594.659 174.996 596.328 175.428 599.282 175.069C603.821 174.517 607.899 172.666 611.88 170.556C614.537 169.148 614.258 166.342 614.842 164.004C615.2 162.573 614.949 160.996 615.235 159.537C615.752 156.898 617.046 154.629 620.067 154.706C623.329 154.789 624.655 157.052 624.688 160.106C624.733 164.233 624.699 168.361 624.699 173.371C628.24 169.848 631.226 166.831 634.263 163.866C637.76 160.453 641.664 157.624 646.398 156.193C654.059 153.878 660.207 158.152 660.626 166.136C660.808 169.59 660.657 173.062 660.657 176.986C666.736 175.632 671.994 172.741 677.526 170.61C679.359 169.905 681.724 167.721 683.141 170.667C684.544 173.585 681.663 174.635 679.719 175.787C678.002 176.805 676.259 177.887 674.385 178.511C662.95 182.317 653.373 188.275 646.811 198.941C643.923 203.636 638.491 206.007 632.958 207.253C629.778 207.969 626.966 207.284 624.927 204.58C622.951 201.959 623.481 199.185 624.876 196.572C628.34 190.083 634.599 186.734 640.979 184.632C648.642 182.106 649.636 176.219 650.73 169.962C651.016 168.324 650.666 166.489 649.191 165.438C647.561 164.277 645.923 165.32 644.558 166.183C637.669 170.536 632.798 176.927 627.672 183.068C622.992 188.676 619.835 194.862 618.622 202.202C617.463 209.214 615.526 216.097 613.966 222.883C615.101 224.122 616.07 223.356 616.927 223.061C643.43 213.959 670.902 210.26 698.675 207.846C714.125 206.503 729.604 206.354 745.059 205.453C746.529 205.367 748.06 205.567 749.501 205.902C751.703 206.413 752.931 207.95 752.918 210.228C752.905 212.493 751.659 213.958 749.498 214.598C747.549 215.176 745.558 214.971 743.553 214.958C705.36 214.7 667.366 216.283 629.999 225.438C617.526 228.494 608.309 233.169 605.958 247.641C604.52 256.495 600.047 264.929 595.729 273.037C593.692 276.861 591.537 280.677 587.699 283.06C582.088 286.544 576.622 284.371 574.971 277.973C573.276 271.408 574.832 265.014 576.702 258.825C583.128 237.558 594.14 218.497 606.201 200.073C610.638 193.295 611.853 186.117 612.599 177.782C606.269 180.335 600.304 182.236 593.992 182.761C592.256 182.906 591.818 184.654 591.19 185.994C589.201 190.234 586.908 194.283 583.87 197.875C578.559 204.152 572.384 208.798 563.593 206.797C554.729 204.78 552.963 197.741 552.819 189.31C549.463 191.719 546.587 193.879 543.607 195.886C541.957 196.997 540.2 198.003 538.379 198.799C526.131 204.154 517.78 198.708 517.868 185.382C517.897 180.955 518.249 176.53 518.468 171.769C513.651 172.32 511.079 175.422 508.522 178.381C501.545 186.456 495.034 194.895 489.24 203.871C488.608 204.849 487.906 205.787 487.173 206.692C485.615 208.616 483.588 209.159 481.363 208.165C478.725 206.986 477.759 204.697 478.299 201.976C478.973 198.589 479.932 195.259 480.984 191.032C477.111 193.855 474.011 196.28 470.742 198.45C467.24 200.774 463.444 202.661 459.1 202.358C453.284 201.953 450.233 197.866 448.674 188.642C446.589 189.255 445.654 191.031 444.466 192.457C441.362 196.181 438.093 199.733 434.036 202.45C425.316 208.291 418.934 206.738 413.95 197.126C410.371 200.823 407.024 204.504 403.432 207.929C399.674 211.511 395.527 214.567 390.352 215.92C384.049 217.568 379.314 215.039 376.793 208.972C373.861 201.913 375.971 194.868 376.553 187.207C370.971 192.052 366.07 196.993 360.346 200.927C356.619 203.489 352.764 205.739 348.267 206.721C339.448 208.645 334.418 204.753 334.083 195.685C334.036 194.395 333.933 193.106 333.835 191.456C330.649 192.339 328.982 194.824 326.654 196.275C324.537 197.595 322.484 199.048 320.264 200.168C310.517 205.085 303.81 201.878 301.302 191.19C301.121 190.416 301.013 189.624 301.651 189.907C297.602 193.298 293.507 196.635 289.52 200.097C286.721 202.527 283.862 204.802 280.114 205.507C273.648 206.724 270.706 205.006 266.196 197.256C262.391 201.073 258.658 204.82 254.922 208.562C251.474 212.015 247.545 214.802 243.132 216.871C233.359 221.451 225.638 217.717 222.905 207.268C222.046 203.983 221.994 200.686 221.989 197.356C221.985 194.206 221.988 191.056 221.988 187.714C219.235 187.233 217.96 189.379 216.361 190.513C199.22 202.661 180.944 212.408 160.272 217.014C151.093 219.059 141.782 219.57 132.521 217.493C126.383 216.116 120.805 213.559 117.118 208.107C115.529 205.756 115.512 203.275 117.862 201.41C120.055 199.669 122.542 200.114 124.079 202.219C131.485 212.365 142.173 212.255 152.649 210.668C179.84 206.547 202.615 193.023 223.468 175.798C225.279 174.303 225.595 172.151 226.21 170.07C234.919 140.651 246.909 112.763 264.908 87.7104C267.935 83.4962 271.464 79.6887 275.724 76.7012C279.121 74.3192 282.888 72.8351 286.93 75.183C290.686 77.3649 291.686 81.1079 291.538 85.0852C291.158 95.3188 287.277 104.538 282.69 113.462C271.699 134.843 257.463 153.843 240.044 170.402C236.736 173.546 234.556 176.984 234.017 181.491C233.171 188.558 230.699 195.496 232.106 202.741C233.375 209.276 236.438 210.845 242.433 207.839C251.762 203.16 258.189 195.151 264.962 187.588C271.621 180.152 276.025 170.892 283.79 164.331C287.948 160.818 292.337 157.956 298.045 157.931C300.451 157.92 302.683 158.45 304.608 159.93C306.304 161.234 307.462 162.937 306.69 165.109C305.866 167.427 303.936 167.777 301.756 167.106C298.902 166.228 296.409 167.312 294.251 168.886C286.655 174.429 281.095 181.562 278.092 190.556C277.562 192.144 277.219 193.778 278.362 195.556C281.895 196.01 284.056 193.398 286.322 191.439C292.529 186.07 297.626 179.687 302.379 173.019C304.02 170.717 305.733 168.455 307.565 166.303C308.912 164.72 310.617 163.605 312.839 164.649C315.253 165.783 316.391 167.826 315.833 170.361C315.121 173.6 314.039 176.761 313.041 179.933C312.137 182.807 311.399 185.695 311.458 188.739C311.558 193.933 314.038 195.659 318.437 192.92C328.315 186.768 336.498 178.794 342.441 168.68C343.199 167.39 343.742 165.96 344.596 164.743C346.283 162.336 348.242 160.028 351.574 161.89C354.637 163.603 354.694 166.352 353.413 169.264C351.669 173.228 349.827 177.149 348.118 181.128C346.476 184.952 344.801 188.79 344.557 193.029C344.291 197.642 346.188 199.633 350.031 197.623C363.59 190.535 376.423 182.016 382.488 167.283C387.988 153.923 392.921 140.308 398.917 126.553C392.725 126.699 387.575 129.09 382.2 130.472C378.778 131.351 374.347 133.732 372.752 128.798C371.067 123.586 376.049 122.637 379.656 121.717C385.452 120.239 391.307 118.79 397.227 118.063C401.952 117.482 404.597 115.369 406.471 111.095C408.739 105.923 411.686 101.047 414.368 96.0581C414.919 95.0346 415.507 94.0061 416.237 93.1096C418.095 90.8287 420.44 89.6015 423.234 91.2222C425.801 92.7112 426.165 95.2862 425.081 97.7952C423.697 100.996 421.938 104.035 420.333 107.14C419.135 109.458 417.526 111.61 417.112 114.543C421.872 115.813 426.265 114.114 430.684 114.214C435.346 114.32 440.02 114.043 444.674 114.253C446.877 114.353 449.976 114.451 449.725 117.711C449.517 120.406 446.808 120.597 444.616 120.573C435.762 120.477 427.026 121.812 418.238 122.547C413.799 122.918 411.119 124.702 409.234 128.97C399.939 150.012 390.95 171.131 386.22 193.791C385.597 196.778 385.517 199.752 385.694 202.733C385.926 206.647 388.051 208.027 391.764 206.721C394.469 205.769 396.681 203.935 398.868 202.131C406.78 195.606 413.262 187.822 418.931 179.319C423.194 172.926 427.62 166.67 434.048 162.18C438.112 159.343 442.449 157.215 447.558 158.109C451.59 158.814 455.007 160.42 454.11 166.102C448.992 167.443 444.039 166.178 439.81 170.097C434.103 175.387 429.468 181.283 426.371 188.374C425.385 190.632 424.851 193.053 426.716 196.341C438.998 188.819 447.011 177.888 454.322 166.284ZM278.919 103.423C280.885 97.7658 283.911 92.2959 282.557 85.84C272.516 87.9242 241.989 142.916 242.604 157.61C257.502 141.344 269.93 124.008 278.919 103.423ZM569.187 175.718C566.006 180.534 564.025 185.785 563.645 191.564C563.49 193.93 563.608 196.413 566.086 197.662C568.263 198.76 570.327 197.841 572.176 196.584C577.366 193.059 580.148 187.755 582.619 182.244C583.053 181.276 583.071 180.167 582.117 179.519C578.491 177.058 576.447 173.326 574.478 169.277C572.575 171.557 571.083 173.344 569.187 175.718ZM588.737 265.212C595.336 249.565 601.085 233.649 604.323 216.926C602.99 218.692 601.866 220.523 600.818 222.396C593.17 236.064 585.865 249.883 582.258 265.3C581.623 268.013 581.101 270.727 582.304 273.736C586.1 272.114 586.788 268.636 588.737 265.212ZM585.961 169.392C585.716 167.65 585.734 165.748 583.214 165.088C581.939 167.388 582.761 169.206 584.358 170.759C585.192 171.57 585.798 171.053 585.961 169.392Z" fill="white"/>
<path d="M398.914 279.432C397.301 268.874 399.537 259.879 408.314 253.944C417.977 247.409 427.778 248.646 437.353 255.883C438.393 249.421 438.032 243.339 437.885 237.312C437.782 233.103 439.39 231.897 443.424 231.905C447.549 231.913 447.857 233.972 447.854 237.243C447.837 255.869 447.99 274.494 448.058 293.12C448.068 295.654 448.146 298.146 444.481 298.497C439.391 298.985 438.356 298.428 437.169 293.142C429.081 299.487 420.226 300.606 411.066 296.508C404.02 293.356 400.345 287.337 398.914 279.432ZM422.852 289.976C429.534 289.698 434.265 286.47 436.61 280.25C438.957 274.026 438.312 267.982 433.498 263.122C429.175 258.758 423.809 257.486 417.869 259.638C411.408 261.979 407.982 268.168 408.676 276.182C409.33 283.722 414.082 288.621 422.852 289.976Z" fill="white"/>
<path d="M491.222 297.684C479.01 300.585 468.105 297.311 462.457 289.263C456.485 280.753 456.429 268.206 462.323 259.589C468.087 251.163 479.968 247.545 490.473 251.121C501.255 254.792 504.992 263.625 505.544 274.129C505.742 277.892 503.293 278.453 500.319 278.446C491.988 278.427 483.657 278.419 475.326 278.472C473.361 278.484 471.325 278.083 469.451 279.044C469.767 286.704 478.931 291.967 487.819 289.496C489.877 288.924 492.082 288.16 493.688 286.838C497.005 284.107 499.158 285.717 501.184 288.28C503.762 291.542 500.445 292.614 498.745 294.053C496.702 295.782 494.2 296.804 491.222 297.684ZM477.149 259.403C472.459 261.091 469.499 264.135 468.691 269.816C477.786 270.035 486.244 270.556 494.761 269.567C493.454 260.864 487.656 257.487 477.149 259.403Z" fill="white"/>
<path d="M551.933 260.812C547.372 272.13 542.843 283.049 538.632 294.09C537.232 297.762 534.9 298.593 531.342 298.586C527.864 298.578 525.894 297.407 524.576 294.067C519.507 281.218 514.178 268.471 508.964 255.679C508.409 254.319 507.559 253.005 507.961 251.42C514.194 248.629 517.18 249.737 519.522 255.634C523.381 265.348 527.266 275.051 531.643 286.018C535.972 275.253 539.851 265.63 543.711 256C546.216 249.751 547.891 249.001 555.025 251.208C555.106 254.591 553.15 257.397 551.933 260.812Z" fill="white"/>
<path d="M482.386 143.665C478.406 140.707 476.906 135.989 473.492 132.919C470.002 133.969 469.795 138.343 465.703 139.245C462.532 128.188 460.884 116.838 458.129 104.026C469.498 110.257 478.708 117.271 488.62 123.598C486.345 127.094 482.307 125.919 479.845 128.64C481.519 131.355 483.063 134.271 484.999 136.898C487.626 140.462 486.913 142.597 482.386 143.665Z" fill="#0963F8"/>
<path d="M785.418 196.278C788.872 199.43 787.463 201.522 784.123 202.995C779.595 204.992 775.016 206.873 769.811 209.078C774.174 212.166 778.69 213.289 782.768 215.283C784.096 215.932 785.534 216.533 786.593 217.511C787.789 218.617 787.773 220.337 787.042 221.694C786.208 223.244 784.797 222.622 783.545 222.068C777.318 219.313 771.093 216.554 764.859 213.814C762.883 212.946 761.591 211.787 761.738 209.314C761.872 207.057 762.656 205.654 764.827 204.772C771.593 202.021 778.296 199.117 785.418 196.278Z" fill="white"/>
<path d="M800.379 221.336C798.67 221.997 797.399 223.016 795.618 222.254C794.07 218.841 795.484 216.786 798.783 215.399C803.009 213.621 807.172 211.694 812.546 209.306C807.146 206.965 802.901 205.204 798.726 203.292C794.733 201.463 794.69 201.222 795.827 195.624C803.671 199.032 811.499 202.152 819.045 205.846C822.274 207.427 821.096 212.241 817.201 214.004C811.741 216.474 806.214 218.795 800.379 221.336Z" fill="white"/>
<path d="M699.678 158.335C699.666 167.464 699.675 176.098 699.629 184.732C699.612 188.024 699.228 191.393 703.708 193.776C699.118 196.119 695.568 195.702 691.104 194.181C695.241 190.509 694.327 186.124 694.358 181.938C694.437 171.479 694.429 161.019 694.605 150.562C694.634 148.805 694.088 146.044 697.271 146.26C700.223 146.461 699.607 148.975 699.67 150.866C699.747 153.188 699.681 155.514 699.678 158.335Z" fill="#0963F8"/>
<path d="M362.202 150.203C358.854 152.871 355.668 155.539 351.867 152.014C349.44 149.764 350.91 145.374 354.866 142.288C357.647 140.119 360.833 138.539 363.835 141.362C367.186 144.514 364.737 147.349 362.202 150.203Z" fill="white"/>
<path d="M379.265 292.398C380.08 288.36 381.998 285.9 386.046 286.136C389.044 286.311 391.003 288.09 391.499 291.023C392.078 294.445 391.228 297.376 387.44 298.456C383.479 299.585 380.882 297.731 379.265 292.398Z" fill="white"/>
</svg>
