<svg width="354" height="116" viewBox="0 0 354 116" fill="none" xmlns="http://www.w3.org/2000/svg">
<g filter="url(#filter0_d_4_15)">
<rect x="8" width="100" height="100" rx="10" fill="#424242"/>
</g>
<path d="M68.5149 67.1818H73.7138V82.267C73.7067 83.6804 73.3693 84.9162 72.7017 85.9744C72.0341 87.0256 71.1108 87.8423 69.9318 88.4247C68.7599 89.0071 67.4034 89.2983 65.8622 89.2983C64.4986 89.2983 63.2592 89.0604 62.1442 88.5845C61.0362 88.1087 60.152 87.37 59.4915 86.3686C58.8381 85.3672 58.5149 84.0852 58.522 82.5227H63.7741C63.7955 83.0838 63.902 83.5632 64.0938 83.9609C64.2926 84.3516 64.5661 84.6463 64.9141 84.8452C65.2621 85.044 65.6776 85.1435 66.1605 85.1435C66.6648 85.1435 67.0909 85.0369 67.4389 84.8239C67.7869 84.6037 68.0497 84.2805 68.2273 83.8544C68.4119 83.4283 68.5078 82.8991 68.5149 82.267V67.1818ZM88.8176 73.723C88.7466 72.9418 88.4306 72.3345 87.8695 71.9013C87.3155 71.4609 86.5236 71.2408 85.4938 71.2408C84.812 71.2408 84.2438 71.3295 83.7892 71.5071C83.3347 71.6847 82.9938 71.9297 82.7665 72.2422C82.5392 72.5476 82.4221 72.8991 82.415 73.2969C82.4007 73.6236 82.4647 73.9112 82.6067 74.1598C82.7559 74.4084 82.9689 74.6286 83.2459 74.8203C83.53 75.005 83.8709 75.1683 84.2686 75.3104C84.6664 75.4524 85.1138 75.5767 85.611 75.6832L87.486 76.1094C88.5655 76.3438 89.5172 76.6562 90.3411 77.0469C91.1721 77.4375 91.8681 77.9027 92.4292 78.4425C92.9973 78.9822 93.427 79.6037 93.7182 80.3068C94.0094 81.0099 94.1586 81.7983 94.1657 82.6719C94.1586 84.0497 93.8105 85.2322 93.1216 86.2195C92.4327 87.2067 91.4419 87.9631 90.1493 88.4886C88.8638 89.0142 87.312 89.277 85.4938 89.277C83.6685 89.277 82.0776 89.0036 80.7211 88.4567C79.3645 87.9098 78.3098 87.0788 77.557 85.9638C76.8042 84.8487 76.4171 83.4389 76.3958 81.7344H81.4455C81.4881 82.4375 81.6763 83.0234 82.0101 83.4922C82.3439 83.9609 82.802 84.3161 83.3844 84.5575C83.9739 84.799 84.6557 84.9197 85.4299 84.9197C86.1401 84.9197 86.7438 84.8239 87.2409 84.6321C87.7452 84.4403 88.1323 84.174 88.4022 83.8331C88.6721 83.4922 88.8105 83.1016 88.8176 82.6612C88.8105 82.2493 88.6827 81.8977 88.4341 81.6065C88.1855 81.3082 87.802 81.0526 87.2836 80.8395C86.7722 80.6193 86.1188 80.4169 85.3233 80.2322L83.0435 79.6996C81.1543 79.2663 79.6664 78.5668 78.5797 77.6009C77.4931 76.6278 76.9533 75.3139 76.9604 73.6591C76.9533 72.3097 77.3155 71.1271 78.0471 70.1115C78.7786 69.0959 79.7907 68.304 81.0833 67.7358C82.3759 67.1676 83.8496 66.8835 85.5044 66.8835C87.1948 66.8835 88.6614 67.1712 89.9043 67.7464C91.1543 68.3146 92.1238 69.1136 92.8127 70.1435C93.5016 71.1733 93.8532 72.3665 93.8674 73.723H88.8176Z" fill="#F5F5F5"/>
<g filter="url(#filter1_d_4_15)">
<rect x="246" width="100" height="100" rx="10" fill="#424242"/>
</g>
<path d="M256.651 89V67.1818H261.925V75.9389H270.522V67.1818H275.785V89H270.522V80.2322H261.925V89H256.651ZM278.379 71.4645V67.1818H296.82V71.4645H290.204V89H285.005V71.4645H278.379ZM299.395 67.1818H305.926L311.466 80.6903H311.721L317.261 67.1818H323.792V89H318.657V75.598H318.476L313.234 88.8615H309.953L304.711 75.5234H304.53V89H299.395V67.1818ZM327.081 89V67.1818H332.354V84.7173H341.431V89H327.081Z" fill="#F5F5F5"/>
<g filter="url(#filter2_d_4_15)">
<rect x="127" width="100" height="100" rx="10" fill="#424242"/>
</g>
<path d="M178.456 75.0866H173.129C173.058 74.5398 172.913 74.0462 172.692 73.6058C172.472 73.1655 172.181 72.7891 171.819 72.4766C171.457 72.1641 171.027 71.9261 170.53 71.7628C170.04 71.5923 169.496 71.5071 168.9 71.5071C167.842 71.5071 166.929 71.7663 166.162 72.2848C165.402 72.8033 164.816 73.5526 164.404 74.5327C163.999 75.5128 163.797 76.6989 163.797 78.0909C163.797 79.5398 164.003 80.7543 164.415 81.7344C164.834 82.7074 165.42 83.4425 166.173 83.9396C166.933 84.4297 167.831 84.6747 168.868 84.6747C169.45 84.6747 169.979 84.6001 170.455 84.451C170.938 84.3018 171.361 84.0852 171.723 83.8011C172.092 83.5099 172.394 83.1584 172.629 82.7464C172.87 82.3274 173.037 81.8551 173.129 81.3295L178.456 81.3615C178.364 82.3274 178.083 83.2791 177.614 84.2166C177.153 85.1541 176.517 86.0099 175.707 86.7841C174.898 87.5511 173.911 88.1619 172.746 88.6165C171.588 89.071 170.26 89.2983 168.761 89.2983C166.787 89.2983 165.018 88.8651 163.456 87.9986C161.901 87.125 160.672 85.8537 159.77 84.1847C158.868 82.5156 158.417 80.4844 158.417 78.0909C158.417 75.6903 158.875 73.6555 159.791 71.9865C160.707 70.3175 161.947 69.0497 163.509 68.1832C165.072 67.3168 166.822 66.8835 168.761 66.8835C170.082 66.8835 171.304 67.0682 172.426 67.4375C173.548 67.7997 174.536 68.3324 175.388 69.0355C176.24 69.7315 176.933 70.5874 177.465 71.603C177.998 72.6186 178.328 73.7798 178.456 75.0866ZM193.267 73.723C193.196 72.9418 192.88 72.3345 192.319 71.9013C191.765 71.4609 190.973 71.2408 189.943 71.2408C189.261 71.2408 188.693 71.3295 188.238 71.5071C187.784 71.6847 187.443 71.9297 187.216 72.2422C186.988 72.5476 186.871 72.8991 186.864 73.2969C186.85 73.6236 186.914 73.9112 187.056 74.1598C187.205 74.4084 187.418 74.6286 187.695 74.8203C187.979 75.005 188.32 75.1683 188.718 75.3104C189.116 75.4524 189.563 75.5767 190.06 75.6832L191.935 76.1094C193.015 76.3438 193.966 76.6562 194.79 77.0469C195.621 77.4375 196.317 77.9027 196.878 78.4425C197.447 78.9822 197.876 79.6037 198.167 80.3068C198.459 81.0099 198.608 81.7983 198.615 82.6719C198.608 84.0497 198.26 85.2322 197.571 86.2195C196.882 87.2067 195.891 87.9631 194.599 88.4886C193.313 89.0142 191.761 89.277 189.943 89.277C188.118 89.277 186.527 89.0036 185.17 88.4567C183.814 87.9098 182.759 87.0788 182.006 85.9638C181.253 84.8487 180.866 83.4389 180.845 81.7344H185.895C185.937 82.4375 186.126 83.0234 186.459 83.4922C186.793 83.9609 187.251 84.3161 187.834 84.5575C188.423 84.799 189.105 84.9197 189.879 84.9197C190.589 84.9197 191.193 84.8239 191.69 84.6321C192.194 84.4403 192.581 84.174 192.851 83.8331C193.121 83.4922 193.26 83.1016 193.267 82.6612C193.26 82.2493 193.132 81.8977 192.883 81.6065C192.635 81.3082 192.251 81.0526 191.733 80.8395C191.221 80.6193 190.568 80.4169 189.773 80.2322L187.493 79.6996C185.604 79.2663 184.116 78.5668 183.029 77.6009C181.942 76.6278 181.403 75.3139 181.41 73.6591C181.403 72.3097 181.765 71.1271 182.496 70.1115C183.228 69.0959 184.24 68.304 185.532 67.7358C186.825 67.1676 188.299 66.8835 189.954 66.8835C191.644 66.8835 193.111 67.1712 194.354 67.7464C195.604 68.3146 196.573 69.1136 197.262 70.1435C197.951 71.1733 198.302 72.3665 198.317 73.723H193.267ZM213.072 73.723C213.001 72.9418 212.684 72.3345 212.123 71.9013C211.569 71.4609 210.778 71.2408 209.748 71.2408C209.066 71.2408 208.498 71.3295 208.043 71.5071C207.589 71.6847 207.248 71.9297 207.02 72.2422C206.793 72.5476 206.676 72.8991 206.669 73.2969C206.655 73.6236 206.719 73.9112 206.861 74.1598C207.01 74.4084 207.223 74.6286 207.5 74.8203C207.784 75.005 208.125 75.1683 208.523 75.3104C208.92 75.4524 209.368 75.5767 209.865 75.6832L211.74 76.1094C212.819 76.3438 213.771 76.6562 214.595 77.0469C215.426 77.4375 216.122 77.9027 216.683 78.4425C217.251 78.9822 217.681 79.6037 217.972 80.3068C218.263 81.0099 218.412 81.7983 218.42 82.6719C218.412 84.0497 218.064 85.2322 217.376 86.2195C216.687 87.2067 215.696 87.9631 214.403 88.4886C213.118 89.0142 211.566 89.277 209.748 89.277C207.922 89.277 206.331 89.0036 204.975 88.4567C203.618 87.9098 202.564 87.0788 201.811 85.9638C201.058 84.8487 200.671 83.4389 200.65 81.7344H205.699C205.742 82.4375 205.93 83.0234 206.264 83.4922C206.598 83.9609 207.056 84.3161 207.638 84.5575C208.228 84.799 208.91 84.9197 209.684 84.9197C210.394 84.9197 210.998 84.8239 211.495 84.6321C211.999 84.4403 212.386 84.174 212.656 83.8331C212.926 83.4922 213.064 83.1016 213.072 82.6612C213.064 82.2493 212.937 81.8977 212.688 81.6065C212.439 81.3082 212.056 81.0526 211.537 80.8395C211.026 80.6193 210.373 80.4169 209.577 80.2322L207.297 79.6996C205.408 79.2663 203.92 78.5668 202.834 77.6009C201.747 76.6278 201.207 75.3139 201.214 73.6591C201.207 72.3097 201.569 71.1271 202.301 70.1115C203.032 69.0959 204.045 68.304 205.337 67.7358C206.63 67.1676 208.104 66.8835 209.758 66.8835C211.449 66.8835 212.915 67.1712 214.158 67.7464C215.408 68.3146 216.378 69.1136 217.067 70.1435C217.756 71.1733 218.107 72.3665 218.121 73.723H213.072Z" fill="#F5F5F5"/>
<defs>
<filter id="filter0_d_4_15" x="0" y="0" width="116" height="116" filterUnits="userSpaceOnUse" color-interpolation-filters="sRGB">
<feFlood flood-opacity="0" result="BackgroundImageFix"/>
<feColorMatrix in="SourceAlpha" type="matrix" values="0 0 0 0 0 0 0 0 0 0 0 0 0 0 0 0 0 0 127 0" result="hardAlpha"/>
<feOffset dy="8"/>
<feGaussianBlur stdDeviation="4"/>
<feComposite in2="hardAlpha" operator="out"/>
<feColorMatrix type="matrix" values="0 0 0 0 0.960784 0 0 0 0 0.960784 0 0 0 0 0.960784 0 0 0 1 0"/>
<feBlend mode="normal" in2="BackgroundImageFix" result="effect1_dropShadow_4_15"/>
<feBlend mode="normal" in="SourceGraphic" in2="effect1_dropShadow_4_15" result="shape"/>
</filter>
<filter id="filter1_d_4_15" x="238" y="0" width="116" height="116" filterUnits="userSpaceOnUse" color-interpolation-filters="sRGB">
<feFlood flood-opacity="0" result="BackgroundImageFix"/>
<feColorMatrix in="SourceAlpha" type="matrix" values="0 0 0 0 0 0 0 0 0 0 0 0 0 0 0 0 0 0 127 0" result="hardAlpha"/>
<feOffset dy="8"/>
<feGaussianBlur stdDeviation="4"/>
<feComposite in2="hardAlpha" operator="out"/>
<feColorMatrix type="matrix" values="0 0 0 0 0.960784 0 0 0 0 0.960784 0 0 0 0 0.960784 0 0 0 1 0"/>
<feBlend mode="normal" in2="BackgroundImageFix" result="effect1_dropShadow_4_15"/>
<feBlend mode="normal" in="SourceGraphic" in2="effect1_dropShadow_4_15" result="shape"/>
</filter>
<filter id="filter2_d_4_15" x="119" y="0" width="116" height="116" filterUnits="userSpaceOnUse" color-interpolation-filters="sRGB">
<feFlood flood-opacity="0" result="BackgroundImageFix"/>
<feColorMatrix in="SourceAlpha" type="matrix" values="0 0 0 0 0 0 0 0 0 0 0 0 0 0 0 0 0 0 127 0" result="hardAlpha"/>
<feOffset dy="8"/>
<feGaussianBlur stdDeviation="4"/>
<feComposite in2="hardAlpha" operator="out"/>
<feColorMatrix type="matrix" values="0 0 0 0 0.960784 0 0 0 0 0.960784 0 0 0 0 0.960784 0 0 0 1 0"/>
<feBlend mode="normal" in2="BackgroundImageFix" result="effect1_dropShadow_4_15"/>
<feBlend mode="normal" in="SourceGraphic" in2="effect1_dropShadow_4_15" result="shape"/>
</filter>
</defs>
</svg>
