<svg width="124" height="46" viewBox="0 0 124 46" fill="none" xmlns="http://www.w3.org/2000/svg">
<path d="M0 9C0 7.34315 1.34315 6 3 6H28C29.6569 6 31 7.34315 31 9V13H0V9Z" fill="#B9F6CA"/>
<path d="M31.021 35.9999C31.0299 37.6568 29.694 39.0071 28.0372 39.016L3.03757 39.1503C1.38074 39.1592 0.0303939 37.8233 0.0214924 36.1665L2.441e-06 32.1665L30.9996 32L31.021 35.9999Z" fill="#B9F6CA"/>
<circle cx="110" cy="21" r="5" fill="#B9F6CA"/>
<path d="M14.6406 30H8.76562L8.71875 28.9531L10.25 28.5781L6.9375 23.8438L6.0625 22.6875L1.79688 16.6875L0.515625 16.3438L0.59375 15.2812H6.39062L6.4375 16.3438L4.98438 16.6875L7.76562 20.6094L8.5625 21.75L13.4375 28.5781L14.7188 28.9531L14.6406 30ZM10.5312 16.6875L8.92188 16.3438L8.96875 15.2812H13.6875L13.7344 16.3438L12.4531 16.6875L8.5625 21.75L6.9375 23.8438L3.60938 28.5781L5.3125 28.9531L5.26562 30H0.4375L0.390625 28.9531L1.67188 28.5781L6.0625 22.6875L7.76562 20.6094L10.5312 16.6875ZM27.3594 16.6875L22.1719 24.8125L22.9531 22.8594V25.2656C22.9531 26.3177 22.9688 27.1146 23 27.6562C23.0312 28.1875 23.0573 28.5052 23.0781 28.6094L24.8281 28.9219L24.7812 30H18.6406L18.5625 28.9219L20.3125 28.6094C20.3333 28.5052 20.3594 28.1875 20.3906 27.6562C20.4219 27.1146 20.4375 26.3177 20.4375 25.2656V22.8594L21.0469 24.8125L16.0469 16.6875L14.7969 16.3438L14.8438 15.2812H20.4844L20.5625 16.3438L19.0312 16.6875L22.5781 22.4844H22.125L25.5625 16.6875L23.7969 16.3438L23.875 15.2812H28.5625L28.6406 16.3438L27.3594 16.6875ZM40.9688 30.0938C40.5833 30.0729 40.1302 30.0521 39.6094 30.0312C39.0885 30.0104 38.6302 30 38.2344 30H32.0781C31.474 30 30.8594 30.0156 30.2344 30.0469V29.0312L38.375 15.6562L38.4062 16.5625H33.1875C32.7917 16.5625 32.4583 16.5729 32.1875 16.5938C31.9167 16.6146 31.6667 16.6458 31.4375 16.6875L31.0312 19.2188H29.8281L29.7812 15.2656C30.1667 15.276 30.5521 15.2812 30.9375 15.2812C31.3229 15.2812 31.6719 15.2812 31.9844 15.2812H38.9531C39.599 15.2812 40.2344 15.2656 40.8594 15.2344V16.2656L32.8125 29.5625V28.625H38.3594C38.7552 28.625 39.0885 28.599 39.3594 28.5469L40.4062 25.75L41.6094 25.8906L40.9688 30.0938ZM53.7812 30.0625L48.2188 16.6875L46.9531 16.3125L47.0156 15.2812H52.6562L52.7344 16.3438L51.1875 16.6875L55.4375 27.25H54.7656L58.7344 16.6875L56.9688 16.3438L57.0469 15.2812H61.8438L61.8906 16.3125L60.6406 16.6875L54.9375 30.0625H53.7812ZM68.1562 30.1875C67.1562 30.1875 66.2552 29.9635 65.4531 29.5156C64.6615 29.0677 64.0312 28.4375 63.5625 27.625C63.1042 26.8125 62.875 25.8594 62.875 24.7656C62.875 23.5885 63.125 22.5625 63.625 21.6875C64.125 20.8125 64.776 20.1354 65.5781 19.6562C66.3906 19.1771 67.2604 18.9427 68.1875 18.9531C69.5729 18.9635 70.6354 19.4115 71.375 20.2969C72.125 21.1719 72.5 22.3594 72.5 23.8594V24.3594H64.9219V23.1875H70.5938L70.2656 23.6094V22.9844C70.2656 22.0677 70.0625 21.3594 69.6562 20.8594C69.25 20.3594 68.6927 20.1094 67.9844 20.1094C67.2969 20.1094 66.6875 20.4115 66.1562 21.0156C65.6354 21.6094 65.375 22.5104 65.375 23.7188V24.0938C65.375 25.3958 65.7031 26.4219 66.3594 27.1719C67.026 27.9219 67.8958 28.2969 68.9688 28.2969C69.5521 28.2969 70.0729 28.1875 70.5312 27.9688C70.9896 27.75 71.4375 27.375 71.875 26.8438L72.5469 27.4688C72.0677 28.3854 71.4531 29.0677 70.7031 29.5156C69.9531 29.9635 69.1042 30.1875 68.1562 30.1875ZM74.0469 30L73.9688 29.0312L75.5312 28.625C75.5521 28.5 75.5729 28.2344 75.5938 27.8281C75.625 27.4115 75.6458 26.8073 75.6562 26.0156L75.6719 24.0938C75.6719 23.5521 75.651 23.0365 75.6094 22.5469C75.5677 22.0573 75.5156 21.6354 75.4531 21.2812L73.8438 20.9219V20L77.5625 19L78.0781 19.4219L77.9375 20.7812L78 20.7969C79.1042 19.5677 80.3177 18.9531 81.6406 18.9531C82.599 18.9531 83.4427 19.3229 84.1719 20.0625C84.9115 20.7917 85.2812 21.8854 85.2812 23.3438V26.0469C85.2812 26.6302 85.2917 27.1719 85.3125 27.6719C85.3438 28.1615 85.3854 28.4792 85.4375 28.625L86.9844 29.0312L86.9062 30H81.4375L81.3906 29.0312L82.8438 28.625C82.8646 28.4375 82.8854 28.1354 82.9062 27.7188C82.9375 27.3021 82.9531 26.7865 82.9531 26.1719V23.6562C82.9531 22.6042 82.7031 21.8594 82.2031 21.4219C81.7031 20.974 81.1562 20.75 80.5625 20.75C79.5208 20.75 78.6667 21.2135 78 22.1406V25.875C78 26.5833 78.0104 27.1823 78.0312 27.6719C78.0625 28.1615 78.0938 28.4792 78.125 28.625L79.6875 29.0312L79.6094 30H74.0469ZM97.0469 30.2656L96.5625 29.9531L96.5938 28.3281L96.5156 28.2969C96.0365 28.9948 95.5365 29.4844 95.0156 29.7656C94.4948 30.0469 93.9479 30.1875 93.375 30.1875C92.4479 30.1875 91.6042 29.9688 90.8438 29.5312C90.0938 29.0833 89.5 28.4688 89.0625 27.6875C88.625 26.9062 88.4062 26 88.4062 24.9688C88.4062 23.75 88.6823 22.6927 89.2344 21.7969C89.7969 20.8906 90.5156 20.1927 91.3906 19.7031C92.2656 19.2135 93.1875 18.9688 94.1562 18.9688C94.5729 18.9688 95 19.0156 95.4375 19.1094C95.875 19.2031 96.2448 19.349 96.5469 19.5469C96.5469 19.1406 96.5417 18.6146 96.5312 17.9688C96.5208 17.3125 96.5052 16.6927 96.4844 16.1094C96.474 15.5156 96.4583 15.1146 96.4375 14.9062L94.5156 14.5781L94.4531 13.6562L98.5 12.5781L99.0156 12.9531C98.974 13.9948 98.9375 14.9844 98.9062 15.9219C98.8854 16.8594 98.875 17.8438 98.875 18.875L98.8438 24.6719C98.8438 25.526 98.8646 26.2396 98.9062 26.8125C98.9583 27.3854 98.9948 27.8073 99.0156 28.0781L100.656 28.4844V29.375L97.0469 30.2656ZM94.1875 28.2969C94.6042 28.2969 95.0052 28.2031 95.3906 28.0156C95.776 27.8177 96.1615 27.4792 96.5469 27V21.5625C96.2552 21.0729 95.8958 20.724 95.4688 20.5156C95.0417 20.3073 94.6146 20.2031 94.1875 20.2031C93.2188 20.2031 92.4479 20.5729 91.875 21.3125C91.3021 22.0521 91.0156 23.026 91.0156 24.2344C91.0156 25.526 91.3229 26.526 91.9375 27.2344C92.5521 27.9427 93.3021 28.2969 94.1875 28.2969ZM107.688 30.1875C106.021 30.1875 104.677 29.6719 103.656 28.6406C102.635 27.6094 102.125 26.276 102.125 24.6406C102.125 23.474 102.385 22.4688 102.906 21.625C103.427 20.7708 104.115 20.1146 104.969 19.6562C105.833 19.1875 106.776 18.9531 107.797 18.9531C109.391 18.9531 110.672 19.4635 111.641 20.4844C112.62 21.5052 113.109 22.8385 113.109 24.4844C113.109 25.5573 112.87 26.526 112.391 27.3906C111.911 28.2448 111.26 28.9271 110.438 29.4375C109.625 29.9375 108.708 30.1875 107.688 30.1875ZM107.938 28.9062C108.719 28.9062 109.339 28.5573 109.797 27.8594C110.255 27.151 110.484 26.2135 110.484 25.0469C110.484 23.599 110.208 22.4323 109.656 21.5469C109.104 20.651 108.375 20.2031 107.469 20.2031C106.656 20.2031 106.005 20.5625 105.516 21.2812C105.026 21.9896 104.781 22.9427 104.781 24.1406C104.781 25.526 105.078 26.6667 105.672 27.5625C106.266 28.4583 107.021 28.9062 107.938 28.9062ZM114.781 30L114.719 29.0312L116.266 28.625C116.286 28.5104 116.307 28.2448 116.328 27.8281C116.359 27.401 116.38 26.7969 116.391 26.0156L116.422 24.0938C116.422 23.5521 116.396 23.0365 116.344 22.5469C116.302 22.0573 116.25 21.6354 116.188 21.2812L114.594 20.9219V20L118.281 19L118.719 19.375L118.625 21.4375L118.703 21.4531C119.193 20.5156 119.693 19.8802 120.203 19.5469C120.714 19.2031 121.208 19.0312 121.688 19.0312C122.104 19.0312 122.448 19.1354 122.719 19.3438C123 19.5521 123.141 19.8698 123.141 20.2969C123.141 20.7448 122.99 21.0885 122.688 21.3281C122.396 21.5677 122.026 21.6875 121.578 21.6875C120.932 21.6875 120.333 21.4115 119.781 20.8594L120.312 20.9844C119.708 21.3698 119.177 22.0469 118.719 23.0156L118.75 25.2188C118.771 25.9479 118.792 26.6406 118.812 27.2969C118.844 27.9427 118.875 28.3854 118.906 28.625L121.078 28.9844L121.031 30H114.781Z" fill="#424242"/>
</svg>
